<svg width="121" height="40" viewBox="0 0 121 40" fill="none" xmlns="http://www.w3.org/2000/svg">
<g clip-path="url(#clip0_1545_1555)">
<path d="M26.6746 6.23047H12.7553C9.15183 6.23047 6.23065 9.15704 6.23065 12.7672V26.7122C6.23065 30.3223 9.15183 33.2488 12.7553 33.2488H26.6746C30.278 33.2488 33.1992 30.3223 33.1992 26.7122V12.7672C33.1992 9.15704 30.278 6.23047 26.6746 6.23047Z" fill="white"/>
<path fill-rule="evenodd" clip-rule="evenodd" d="M19.7491 28.3628C19.2887 28.3703 18.6282 27.9961 18.6282 27.9961C17.2447 27.3031 14.5406 24.6077 14.208 21.1915C13.8853 17.8774 15.602 14.644 19.7063 14.6299H19.7127C19.7152 14.6299 19.7177 14.6299 19.7202 14.6299L19.7333 14.6299C23.8376 14.644 25.5543 17.8774 25.2316 21.1915C24.899 24.6077 22.195 27.3031 20.8114 27.9961C20.8114 27.9961 20.1878 28.3557 19.7491 28.3628Z" fill="#082D59"/>
<path fill-rule="evenodd" clip-rule="evenodd" d="M23.463 12.651C24.0065 12.3242 24.7002 11.9186 25.3027 11.592C25.6085 11.4263 25.8892 11.2816 26.1142 11.1781C26.2268 11.1262 26.3236 11.0856 26.4014 11.0578C26.4839 11.0283 26.531 11.0187 26.5497 11.0181C26.746 11.0117 26.8499 10.8857 26.8921 10.7751C26.9363 10.6592 26.9331 10.5181 26.8756 10.4081C26.8467 10.3526 26.8007 10.2988 26.7307 10.2629C26.6573 10.2252 26.5671 10.2122 26.4689 10.2287C26.3749 10.2446 26.2775 10.2866 26.177 10.3523C26.0756 10.4185 25.9653 10.5124 25.8454 10.6388C25.1095 11.414 23.9648 12.0036 23.4873 12.1999L23.4695 12.2072L23.4565 12.2188C23.4311 12.2415 23.3946 12.2701 23.351 12.2991C23.2893 12.2787 23.2199 12.2752 23.1585 12.2792C23.0614 12.2854 22.9583 12.3111 22.8678 12.3465C22.7775 12.3817 22.691 12.4301 22.6323 12.4868C22.5742 12.5429 22.5319 12.6198 22.5727 12.7008L22.5728 12.701C22.573 12.7013 22.5732 12.7019 22.5735 12.7029C22.574 12.7043 22.5745 12.7064 22.5751 12.7092C22.5762 12.7149 22.5771 12.7224 22.5773 12.7322C22.5779 12.7519 22.5761 12.7775 22.5714 12.8092C22.5622 12.8724 22.5426 12.9544 22.5142 13.0515C22.4574 13.2454 22.3673 13.4933 22.2616 13.7606C22.0503 14.2947 21.7787 14.9009 21.593 15.2961L21.5242 15.4427L22.2705 15.2749L22.166 15.1841C22.1381 15.1599 22.127 15.1107 22.1484 15.0354C22.1685 14.965 22.2112 14.8938 22.244 14.8509L22.2536 14.8383L22.2565 14.824C22.3231 14.4911 22.6154 13.6456 23.2434 12.9519C23.3503 12.8339 23.4217 12.7344 23.463 12.651ZM15.9957 12.6593C15.4522 12.3325 14.7585 11.927 14.1561 11.6004C13.8503 11.4345 13.5695 11.29 13.3445 11.1864C13.2319 11.1346 13.1352 11.0939 13.0573 11.0661C12.9748 11.0367 12.9278 11.027 12.9091 11.0264C12.7127 11.0201 12.6088 10.894 12.5666 10.7834C12.5224 10.6675 12.5257 10.5264 12.5831 10.4164C12.612 10.3609 12.6581 10.3072 12.728 10.2712C12.8015 10.2335 12.8916 10.2205 12.9898 10.237C13.0839 10.2529 13.1812 10.2949 13.2818 10.3606C13.3831 10.4268 13.4934 10.5207 13.6134 10.6471C14.3492 11.4224 15.494 12.0119 15.9714 12.2082L15.9892 12.2155L16.0022 12.2271C16.0276 12.2498 16.0641 12.2784 16.1077 12.3074C16.1694 12.2871 16.2389 12.2836 16.3003 12.2875C16.3973 12.2937 16.5004 12.3194 16.5909 12.3548C16.6812 12.3901 16.7677 12.4384 16.8265 12.4951C16.8846 12.5512 16.9269 12.6281 16.886 12.709L16.8859 12.7093C16.8858 12.7095 16.8858 12.7097 16.8857 12.71C16.8855 12.7102 16.8854 12.7106 16.8853 12.7111C16.8848 12.7126 16.8842 12.7147 16.8837 12.7175C16.8825 12.7232 16.8817 12.7308 16.8814 12.7405C16.8809 12.7602 16.8827 12.7858 16.8873 12.8175C16.8965 12.8808 16.9161 12.9627 16.9445 13.0598C17.0013 13.2537 17.0914 13.5016 17.1971 13.7688C17.4084 14.303 17.68 14.9093 17.8657 15.3045L17.9346 15.4511L17.1882 15.2832L17.2927 15.1924C17.3207 15.1682 17.3318 15.1189 17.3104 15.0437C17.2903 14.9732 17.2476 14.9021 17.2148 14.8592L17.2051 14.8466L17.2022 14.8323C17.1356 14.4994 16.8434 13.6539 16.2153 12.9602C16.1084 12.8422 16.037 12.7427 15.9957 12.6593Z" fill="#082D59"/>
<path fill-rule="evenodd" clip-rule="evenodd" d="M17.0302 25.7598C17.3028 26.0063 17.5855 26.2618 17.8467 26.512C17.9672 26.6275 18.118 26.776 18.2306 26.9114C18.2349 26.9164 18.24 26.9216 18.2454 26.9269C18.2619 26.9433 18.2796 26.961 18.2731 26.9804C18.2713 26.9856 18.2654 26.9875 18.2596 26.9893C18.2573 26.99 18.255 26.9908 18.253 26.9917C18.2312 27.0019 18.2159 27.0082 18.2032 27.0134C18.1675 27.0281 18.1535 27.0339 18.0794 27.0924C17.7669 27.3391 17.5541 27.6746 17.384 28.032C17.3744 28.052 17.3661 28.0726 17.3577 28.0932C17.3461 28.1218 17.3345 28.1503 17.3198 28.1773C17.3195 28.1778 17.3193 28.1783 17.319 28.1789C17.3119 28.1919 17.3021 28.21 17.288 28.2084C17.2601 28.2052 17.24 28.1289 17.2272 28.08C17.2231 28.0645 17.2198 28.0517 17.2171 28.0449C17.1919 27.9803 17.1875 28.0218 17.1831 28.064C17.1826 28.0694 17.182 28.0748 17.1814 28.08C17.1478 28.3667 17.1353 28.658 17.1881 28.9432C17.2155 29.0911 17.2765 29.2439 17.3488 29.3765C17.3605 29.3979 17.3579 29.402 17.3254 29.3855C17.097 29.2698 16.9359 29.0056 16.8214 28.7865C16.6496 28.4574 16.5859 28.112 16.5636 27.7434C16.535 27.272 16.5319 26.7814 16.5988 26.3129C16.6312 26.0856 16.7135 25.8926 16.8075 25.6885C16.812 25.6787 16.8163 25.6676 16.8207 25.6561C16.829 25.6348 16.8377 25.6125 16.8488 25.5957C16.9085 25.6499 16.9691 25.7046 17.0302 25.7598ZM22.4467 25.7599C22.1741 26.0063 21.8914 26.2618 21.6302 26.512C21.5097 26.6275 21.3589 26.776 21.2463 26.9114C21.242 26.9164 21.2369 26.9216 21.2315 26.9269C21.215 26.9433 21.1972 26.961 21.2038 26.9804C21.2056 26.9856 21.2115 26.9875 21.2173 26.9893C21.2196 26.99 21.2219 26.9908 21.2239 26.9917C21.2457 27.0019 21.261 27.0082 21.2737 27.0134C21.3094 27.0281 21.3234 27.0339 21.3975 27.0924C21.71 27.3391 21.9228 27.6746 22.0929 28.032C22.1024 28.052 22.1108 28.0726 22.1192 28.0932C22.1308 28.1218 22.1424 28.1503 22.157 28.1773L22.1579 28.1789C22.165 28.1919 22.1748 28.21 22.1889 28.2084C22.2168 28.2052 22.2369 28.1289 22.2497 28.08C22.2538 28.0645 22.2571 28.0517 22.2598 28.045C22.285 27.9803 22.2893 28.0218 22.2937 28.064C22.2943 28.0694 22.2949 28.0748 22.2955 28.08C22.329 28.3667 22.3415 28.658 22.2888 28.9432C22.2614 29.0911 22.2004 29.2439 22.1281 29.3765C22.1163 29.3979 22.119 29.402 22.1515 29.3855C22.3799 29.2698 22.541 29.0056 22.6555 28.7865C22.8273 28.4575 22.891 28.112 22.9133 27.7435C22.9419 27.272 22.9449 26.7814 22.8781 26.3129C22.8457 26.0856 22.7634 25.8926 22.6694 25.6885C22.6649 25.6787 22.6606 25.6676 22.6561 25.6561C22.6479 25.6348 22.6392 25.6125 22.6281 25.5957C22.5684 25.6499 22.5078 25.7046 22.4467 25.7599Z" fill="#082D59"/>
<path d="M18.5414 20.4304C18.5414 22.3265 17.3199 23.8637 15.8131 23.8637C14.3063 23.8637 13.0848 22.3265 13.0848 20.4304C13.0848 18.5342 14.3063 16.9971 15.8131 16.9971C17.3199 16.9971 18.5414 18.5342 18.5414 20.4304Z" fill="white"/>
<path fill-rule="evenodd" clip-rule="evenodd" d="M15.8131 23.4279C16.9924 23.4279 18.1064 22.1838 18.1064 20.4304C18.1064 18.677 16.9924 17.4329 15.8131 17.4329C14.6338 17.4329 13.5198 18.677 13.5198 20.4304C13.5198 22.1838 14.6338 23.4279 15.8131 23.4279ZM15.8131 23.8637C17.3199 23.8637 18.5414 22.3265 18.5414 20.4304C18.5414 18.5342 17.3199 16.9971 15.8131 16.9971C14.3063 16.9971 13.0848 18.5342 13.0848 20.4304C13.0848 22.3265 14.3063 23.8637 15.8131 23.8637Z" fill="#082D59"/>
<path d="M26.4298 20.4304C26.4298 22.3265 25.2083 23.8637 23.7015 23.8637C22.1948 23.8637 20.9733 22.3265 20.9733 20.4304C20.9733 18.5342 22.1948 16.9971 23.7015 16.9971C25.2083 16.9971 26.4298 18.5342 26.4298 20.4304Z" fill="white"/>
<path fill-rule="evenodd" clip-rule="evenodd" d="M23.7015 23.4279C24.8808 23.4279 25.9948 22.1838 25.9948 20.4304C25.9948 18.677 24.8808 17.4329 23.7015 17.4329C22.5223 17.4329 21.4083 18.677 21.4083 20.4304C21.4083 22.1838 22.5223 23.4279 23.7015 23.4279ZM23.7015 23.8637C25.2083 23.8637 26.4298 22.3265 26.4298 20.4304C26.4298 18.5342 25.2083 16.9971 23.7015 16.9971C22.1948 16.9971 20.9733 18.5342 20.9733 20.4304C20.9733 22.3265 22.1948 23.8637 23.7015 23.8637Z" fill="#082D59"/>
<path d="M48.8054 16.4831V17.4181C48.3227 16.8149 47.5082 16.2871 46.437 16.2871C44.2046 16.2871 42.4999 18.0665 42.4999 20.2381C42.4999 22.3191 44.2648 24.2644 46.437 24.2644C47.5082 24.2644 48.3227 23.7518 48.8054 23.1485V24.0684H51.5509V16.4831H48.8054ZM48.926 20.5246C48.7601 21.4294 48.0662 22.0025 47.1611 22.0025C46.0147 22.0025 45.336 21.2182 45.336 20.2381C45.336 19.1674 45.9543 18.5491 47.1611 18.5491C48.0662 18.5491 48.7601 19.1373 48.926 20.042V20.5246Z" fill="white"/>
<path d="M58.1082 16.2871C57.0374 16.2871 56.2228 16.7998 55.7249 17.403V16.4831H53.0546V24.0684H55.8V20.0269C55.951 19.1221 56.4791 18.5491 57.2786 18.5491C58.1687 18.5491 58.4099 18.911 58.4099 19.9516V24.0684H61.1553V19.9516C61.1553 17.6142 60.2501 16.2871 58.1082 16.2871Z" fill="white"/>
<path d="M66.1453 18.6701H68.3329V16.4834H66.1453V13.5127H63.3998V16.4834H62.0724V18.6701H63.3998V24.0687H66.1453V18.6701Z" fill="white"/>
<path d="M71.9427 18.6547C71.9427 18.4285 72.1088 18.3229 72.8327 18.3229C73.5266 18.3229 74.1907 18.4888 74.8391 18.8658L75.7293 17.0713C74.8542 16.5435 73.949 16.2871 72.6515 16.2871C70.7812 16.2871 69.1521 16.8602 69.1521 18.6698C69.1521 19.9666 70.1628 20.5397 71.2942 20.9468C72.561 21.3992 72.9533 21.5651 72.9533 21.8969C72.9533 22.108 72.7422 22.2135 71.9882 22.2135C71.3696 22.2135 70.344 21.912 69.635 21.5048L68.8054 23.4199C69.7706 23.9629 70.7963 24.2644 72.2598 24.2644C74.2206 24.2644 75.7442 23.7518 75.7442 21.8365C75.7442 20.4643 74.7786 19.9214 73.3912 19.4539C72.1842 19.0468 71.9427 18.9412 71.9427 18.6547Z" fill="white"/>
<path d="M80.4648 18.6701H82.6523V16.4834H80.4648V13.5127H77.7194V16.4834H76.3918V18.6701H77.7194V24.0687H80.4648V18.6701Z" fill="white"/>
<path d="M89.5665 16.4831V17.4181C89.0836 16.8149 88.2691 16.2871 87.1983 16.2871C84.9657 16.2871 83.2611 18.0665 83.2611 20.2381C83.2611 22.3191 85.0259 24.2644 87.1983 24.2644C88.2691 24.2644 89.0836 23.7518 89.5665 23.1485V24.0684H92.3119V16.4831H89.5665ZM89.6871 20.5246C89.521 21.4294 88.8274 22.0025 87.9223 22.0025C86.7756 22.0025 86.097 21.2182 86.097 20.2381C86.097 19.1674 86.7155 18.5491 87.9223 18.5491C88.8274 18.5491 89.521 19.1373 89.6871 20.042V20.5246Z" fill="white"/>
<path d="M98.0845 22.0025C97.0888 22.0025 96.3499 21.3389 96.3499 20.2531C96.3648 19.1221 96.9232 18.5491 97.979 18.5491C98.628 18.5491 99.382 18.6848 100.061 18.9713V16.6792C99.3669 16.4229 98.8086 16.2871 97.979 16.2871C95.6258 16.2871 93.5138 17.8554 93.5138 20.2531C93.5138 22.6056 95.6107 24.2644 97.979 24.2644C98.7185 24.2644 99.4425 24.1589 100.061 23.9478V21.6405C99.2463 21.9421 98.6579 22.0025 98.0845 22.0025Z" fill="white"/>
<path d="M109.761 24.068L105.431 19.6948L109.535 16.4828H106.08L104.059 18.0662V11.3857H101.344V24.068H104.059V21.7004L106.352 24.068H109.761Z" fill="white"/>
<path d="M112.273 11.3447C112.741 11.3447 113.16 11.4525 113.531 11.6682C113.903 11.8758 114.193 12.1673 114.403 12.5426C114.612 12.91 114.717 13.3253 114.717 13.7885C114.717 14.2517 114.612 14.671 114.403 15.0463C114.193 15.4217 113.903 15.7172 113.531 15.9328C113.16 16.1404 112.741 16.2443 112.273 16.2443C111.797 16.2443 111.373 16.1404 111.002 15.9328C110.631 15.7172 110.341 15.4217 110.131 15.0463C109.921 14.671 109.816 14.2517 109.816 13.7885C109.816 13.3253 109.921 12.91 110.131 12.5426C110.341 12.1673 110.631 11.8758 111.002 11.6682C111.373 11.4525 111.797 11.3447 112.273 11.3447ZM112.273 15.7651C112.854 15.7651 113.322 15.5814 113.677 15.214C114.04 14.8467 114.221 14.3715 114.221 13.7885C114.221 13.2055 114.04 12.7303 113.677 12.363C113.322 11.9956 112.854 11.8119 112.273 11.8119C111.684 11.8119 111.212 11.9956 110.857 12.363C110.51 12.7303 110.337 13.2055 110.337 13.7885C110.337 14.3715 110.51 14.8467 110.857 15.214C111.212 15.5814 111.684 15.7651 112.273 15.7651ZM113.362 13.2854C113.362 13.477 113.31 13.6408 113.205 13.7765C113.108 13.9043 112.971 13.9961 112.793 14.0521L113.471 15.0463L112.709 15.0583L112.128 14.1H111.922V15.0583H111.293V12.4828H112.454C112.729 12.4828 112.947 12.5546 113.108 12.6984C113.277 12.8421 113.362 13.0378 113.362 13.2854ZM111.922 13.5849H112.418C112.507 13.5849 112.58 13.5609 112.636 13.513C112.7 13.4651 112.733 13.3972 112.733 13.3093C112.733 13.2215 112.7 13.1576 112.636 13.1177C112.58 13.0697 112.507 13.0458 112.418 13.0458H111.922V13.5849Z" fill="white"/>
</g>
<defs>
<clipPath id="clip0_1545_1555">
<rect width="108.487" height="27.3214" fill="white" transform="translate(6.2312 6.23145)"/>
</clipPath>
</defs>
</svg>
