<svg width="106" height="40" viewBox="0 0 106 40" fill="none" xmlns="http://www.w3.org/2000/svg">
<rect width="14.3294" height="29.429" transform="matrix(0.859406 -0.511293 0 1 0 7.32617)" fill="#B7DDFF"/>
<rect width="14.3294" height="29.429" transform="matrix(0.859406 -0.511293 0 1 7.01025 10.5713)" fill="#0085FF"/>
<path fill-rule="evenodd" clip-rule="evenodd" d="M67.175 9.58368C66.6849 9.58368 66.2876 9.98097 66.2876 10.4711V12.8275H63.221C62.5556 12.8275 62.1269 13.5327 62.4332 14.1234L69.1897 27.1544C69.3394 27.4478 69.6059 27.5945 69.9891 27.5945C70.3784 27.5945 70.6508 27.4478 70.8065 27.1544L77.2281 14.1068C77.5183 13.5171 77.0891 12.8275 76.4319 12.8275H73.161C73.1173 12.8275 73.0741 12.8307 73.0317 12.837V10.4711C73.0317 9.98097 72.6344 9.58368 72.1443 9.58368H67.175ZM55.5721 18.2798C55.5721 17.2678 55.087 16.7618 54.1169 16.7618C53.6978 16.7618 53.2307 17.0253 52.7157 17.5522C51.9432 18.3487 51.4043 19.2978 51.0989 20.3996C51.0031 20.747 50.9552 21.0673 50.9552 21.3607C50.9552 22.3548 51.4582 22.8518 52.4642 22.8518C52.8654 22.8578 53.3235 22.5913 53.8385 22.0524C54.587 21.2619 55.117 20.3038 55.4284 19.178C55.5242 18.8307 55.5721 18.5313 55.5721 18.2798ZM53.1199 27.5226C50.9941 27.5226 49.1497 26.834 47.5868 25.4567C47.0898 25.0196 46.6586 24.5195 46.2933 23.9566C45.5149 22.765 45.1256 21.4326 45.1256 19.9595C45.1256 18.4804 45.4849 17.172 46.2035 16.0342C46.9221 14.8965 47.8862 14.0102 49.0958 13.3754C50.3054 12.7407 51.557 12.4233 52.8504 12.4233C54.1499 12.4233 55.2936 12.597 56.2817 12.9443C57.2698 13.2916 58.1291 13.7916 58.8596 14.4443C59.5962 15.0911 60.174 15.8845 60.5932 16.8247C61.0124 17.7648 61.222 18.8277 61.222 20.0134C61.222 21.4865 60.8477 22.7979 60.0992 23.9477C59.3507 25.0914 58.3536 25.9747 57.1081 26.5975C55.8625 27.2142 54.5331 27.5226 53.1199 27.5226ZM38.119 13.7149C38.119 13.2248 38.5163 12.8275 39.0064 12.8275H42.8276C43.3177 12.8275 43.715 13.2248 43.715 13.7149V26.2849C43.715 26.775 43.3177 27.1723 42.8276 27.1723H39.0064C38.5163 27.1723 38.119 26.775 38.119 26.2849V22.841C38.119 22.3205 37.673 21.9117 37.1544 21.957L35.9471 22.0625C35.4886 22.1025 35.1369 22.4863 35.1369 22.9465V26.2849C35.1369 26.775 34.7396 27.1723 34.2495 27.1723H30.4373C29.9472 27.1723 29.5499 26.775 29.5499 26.2849V13.7149C29.5499 13.2248 29.9472 12.8275 30.4373 12.8275H34.2495C34.7396 12.8275 35.1369 13.2248 35.1369 13.7149V17.0478C35.1369 17.5663 35.5795 17.9743 36.0962 17.9323L37.3036 17.8341C37.7643 17.7967 38.119 17.4119 38.119 16.9497V13.7149ZM78.8371 13.7149C78.8371 13.2248 79.2344 12.8275 79.7245 12.8275H88.2884C88.7785 12.8275 89.1758 13.2248 89.1758 13.7149V16.072C89.1758 16.5621 88.7785 16.9594 88.2884 16.9594H85.0125C84.6875 16.9594 84.4241 17.2228 84.4241 17.5477C84.4241 17.8727 84.6875 18.1361 85.0125 18.1361H88.2704C88.7605 18.1361 89.1578 18.5334 89.1578 19.0235V20.7698C89.1578 21.2599 88.7605 21.6572 88.2704 21.6572H85.1023C84.7277 21.6572 84.4241 21.9608 84.4241 22.3353C84.4241 22.7099 84.7277 23.0135 85.1023 23.0135H88.6028C89.0929 23.0135 89.4902 23.4108 89.4902 23.9009V26.2849C89.4902 26.775 89.0929 27.1723 88.6028 27.1723H79.7245C79.2344 27.1723 78.8371 26.775 78.8371 26.2849V13.7149ZM99.407 16.0971C100.036 16.0971 100.35 16.5193 100.35 17.3636C100.35 18.3367 99.6537 19.1793 98.2608 19.8915C97.7101 20.1731 97.0896 19.7414 97.0896 19.1229V17.4808C97.0896 17.1217 97.306 16.798 97.6379 16.6608L98.2842 16.3935C98.7633 16.1959 99.1376 16.0971 99.407 16.0971ZM103.671 21.518C105.014 20.4646 105.686 19.1307 105.686 17.5163C105.68 16.66 105.473 15.8665 105.066 15.136C104.335 13.8605 103.12 13.0281 101.419 12.6389C100.802 12.4952 99.9041 12.4233 98.7244 12.4233C97.6324 12.4233 95.4195 12.5387 92.0856 12.7696C91.621 12.8018 91.26 13.1884 91.26 13.6541V26.2849C91.26 26.775 91.6573 27.1723 92.1474 27.1723H96.2381C96.7282 27.1723 97.1255 26.775 97.1255 26.2849V26.186C97.1255 25.2883 98.3058 24.9582 98.7715 25.7256L99.3904 26.7453C99.5513 27.0104 99.8389 27.1723 100.149 27.1723H104.949C105.684 27.1723 106.1 26.3294 105.654 25.7456L103.454 22.8714C103.131 22.4497 103.253 21.8457 103.671 21.518Z" fill="white"/>
</svg>
