<svg viewBox="0 0 1193 452" fill="none" xmlns="http://www.w3.org/2000/svg">
<rect width="161.479" height="331.637" transform="matrix(0.859406 -0.511293 0 1 0 83.2871)" fill="#F0B53F"/>
<rect width="161.479" height="331.637" transform="matrix(0.859406 -0.511293 0 1 79 119.85)" fill="#DC4D60"/>
<path fill-rule="evenodd" clip-rule="evenodd" d="M756.775 124.623C751.253 124.623 746.775 129.1 746.775 134.623V161.178H712.217C704.719 161.178 699.888 169.125 703.34 175.781L779.479 322.628C781.166 325.935 784.169 327.588 788.488 327.588C792.875 327.588 795.945 325.935 797.699 322.628L870.064 175.594C873.335 168.949 868.499 161.178 861.092 161.178H824.232C823.74 161.178 823.253 161.214 822.775 161.284V134.623C822.775 129.1 818.298 124.623 812.775 124.623H756.775ZM626.022 222.62C626.022 211.216 620.556 205.514 609.624 205.514C604.9 205.514 599.636 208.483 593.833 214.421C585.128 223.396 579.054 234.092 575.613 246.509C574.533 250.423 573.993 254.033 573.993 257.34C573.993 268.542 579.662 274.143 590.999 274.143C595.52 274.21 600.682 271.207 606.486 265.134C614.921 256.226 620.893 245.429 624.402 232.743C625.482 228.829 626.022 225.455 626.022 222.62ZM598.388 326.778C574.432 326.778 553.647 319.018 536.035 303.497C530.434 298.571 525.575 292.936 521.459 286.593C512.686 273.164 508.3 258.149 508.3 241.549C508.3 224.881 512.349 210.136 520.446 197.315C528.544 184.493 539.409 174.506 553.04 167.353C566.671 160.2 580.775 156.623 595.351 156.623C609.995 156.623 622.884 158.58 634.018 162.494C645.153 166.408 654.836 172.043 663.069 179.398C671.37 186.686 677.881 195.628 682.605 206.222C687.329 216.817 689.691 228.795 689.691 242.156C689.691 258.757 685.473 273.535 677.038 286.492C668.603 299.381 657.367 309.334 643.331 316.353C629.295 323.303 614.314 326.778 598.388 326.778ZM429.342 171.178C429.342 165.655 433.819 161.178 439.342 161.178H482.404C487.926 161.178 492.404 165.655 492.404 171.178V312.831C492.404 318.354 487.926 322.831 482.404 322.831H439.342C433.819 322.831 429.342 318.354 429.342 312.831V274.021C429.342 268.155 424.316 263.548 418.472 264.059L404.866 265.247C399.7 265.699 395.736 270.024 395.736 275.209V312.831C395.736 318.354 391.259 322.831 385.736 322.831H342.775C337.253 322.831 332.775 318.354 332.775 312.831V171.178C332.775 165.655 337.253 161.178 342.775 161.178H385.736C391.259 161.178 395.736 165.655 395.736 171.178V208.737C395.736 214.58 400.723 219.178 406.547 218.704L420.152 217.598C425.344 217.176 429.342 212.839 429.342 207.631V171.178ZM888.197 171.178C888.197 165.655 892.674 161.178 898.197 161.178H994.704C1000.23 161.178 1004.7 165.655 1004.7 171.178V197.741C1004.7 203.263 1000.23 207.741 994.704 207.741H957.787C954.126 207.741 951.157 210.709 951.157 214.371C951.157 218.032 954.126 221.001 957.787 221.001H994.501C1000.02 221.001 1004.5 225.478 1004.5 231.001V250.68C1004.5 256.203 1000.02 260.68 994.501 260.68H958.799C954.579 260.68 951.157 264.102 951.157 268.322C951.157 272.543 954.579 275.965 958.799 275.965H998.247C1003.77 275.965 1008.25 280.442 1008.25 285.965V312.831C1008.25 318.354 1003.77 322.831 998.247 322.831H898.197C892.674 322.831 888.197 318.354 888.197 312.831V171.178ZM1120 198.023C1127.09 198.023 1130.63 202.781 1130.63 212.296C1130.63 223.261 1122.78 232.757 1107.08 240.783C1100.88 243.956 1093.89 239.091 1093.89 232.121V213.617C1093.89 209.57 1096.32 205.922 1100.06 204.376L1107.35 201.363C1112.75 199.137 1116.96 198.023 1120 198.023ZM1168.05 259.111C1183.19 247.241 1190.76 232.209 1190.76 214.016C1190.69 204.366 1188.36 195.425 1183.77 187.192C1175.54 172.819 1161.84 163.439 1142.67 159.052C1135.72 157.433 1125.6 156.623 1112.31 156.623C1100 156.623 1075.06 157.924 1037.49 160.526C1032.26 160.888 1028.19 165.245 1028.19 170.493V312.831C1028.19 318.354 1032.67 322.831 1038.19 322.831H1084.29C1089.81 322.831 1094.29 318.354 1094.29 312.831V311.716C1094.29 301.6 1107.59 297.88 1112.84 306.527L1119.81 318.019C1121.63 321.007 1124.87 322.831 1128.36 322.831H1182.45C1190.74 322.831 1195.43 313.332 1190.39 306.753L1165.6 274.363C1161.96 269.611 1163.34 262.804 1168.05 259.111Z" fill="currentColor"/>
</svg>
